<svg width="42" height="35" viewBox="0 0 42 35" fill="none" xmlns="http://www.w3.org/2000/svg">
<path d="M32.2648 14.3008C32.2648 14.6822 31.9593 14.9497 31.6159 14.9497H19.6697C19.2883 14.9497 19.0208 14.6442 19.0208 14.3008V12.9652C19.0208 12.5832 19.3263 12.3163 19.6697 12.3163H31.6159C31.9979 12.3163 32.2648 12.6218 32.2648 12.9652V14.3008Z" fill="#DD5244"/>
<path d="M37.6084 18.2701C37.6084 18.6514 37.3029 18.9189 36.9595 18.9189H22.3413C21.96 18.9189 21.6924 18.6135 21.6924 18.2701V16.9344C21.6924 16.5524 21.9979 16.2856 22.3413 16.2856H36.9216C37.3029 16.2856 37.5698 16.591 37.5698 16.9344L37.6084 18.2701Z" fill="#DD5244"/>
<path d="M41.5776 22.2777C41.5776 22.659 41.2721 22.9265 40.9287 22.9265H24.9748C24.5935 22.9265 24.326 22.6211 24.326 22.2777V20.942C24.326 20.56 24.6314 20.2932 24.9748 20.2932H40.8908C41.2721 20.2932 41.5396 20.5986 41.5396 20.942L41.5776 22.2777Z" fill="#DD5244"/>
<path d="M41.5776 26.2472C41.5776 26.6285 41.2721 26.896 40.9287 26.896H24.9748C24.5935 26.896 24.326 26.5906 24.326 26.2472V24.9115C24.326 24.5295 24.6314 24.262 24.9748 24.262H40.8908C41.2721 24.262 41.5396 24.5675 41.5396 24.9115L41.5776 26.2472Z" fill="#DD5244"/>
<path d="M37.6084 30.2165C37.6084 30.5978 37.3029 30.8653 36.9595 30.8653H22.3413C21.96 30.8653 21.6924 30.5599 21.6924 30.2165V28.8808C21.6924 28.4988 21.9979 28.232 22.3413 28.232H36.9216C37.3029 28.232 37.5698 28.5374 37.5698 28.8808L37.6084 30.2165Z" fill="#DD5244"/>
<path d="M32.2648 34.224C32.2648 34.6053 31.9593 34.8729 31.6159 34.8729H19.6697C19.2883 34.8729 19.0208 34.5674 19.0208 34.224V32.8884C19.0208 32.5064 19.3263 32.2395 19.6697 32.2395H31.6159C31.9979 32.2395 32.2648 32.545 32.2648 32.8884V34.224Z" fill="#DD5244"/>
<path d="M9.70837 2.35447C9.70837 2.7358 10.0132 3.00332 10.3572 3.00332H22.3035C22.6848 3.00332 22.9523 2.69786 22.9523 2.35447V1.01882C22.9523 0.636833 22.6469 0.369965 22.3035 0.369965H10.3952C10.0132 0.369965 9.74631 0.675424 9.74631 1.01882L9.70837 2.35447Z" fill="#DD5244"/>
<path d="M4.40277 6.32405C4.40277 6.70539 4.70823 6.97291 5.05163 6.97291H19.6319C20.0132 6.97291 20.2801 6.66745 20.2801 6.32405V4.98841C20.2801 4.60642 19.9753 4.3389 19.6319 4.3389H5.09022C4.70823 4.3389 4.44136 4.64436 4.44136 4.98841V6.32405H4.40277Z" fill="#DD5244"/>
<path d="M0.433594 10.3313C0.433594 10.7133 0.739053 10.9801 1.08245 10.9801H16.9984C17.3797 10.9801 17.6466 10.6747 17.6466 10.3313V8.99563C17.6466 8.61429 17.3418 8.34677 16.9984 8.34677H1.08245C0.701116 8.34677 0.433594 8.65223 0.433594 8.99563V10.3313Z" fill="#DD5244"/>
<path d="M0.433594 14.3008C0.433594 14.6822 0.739053 14.9497 1.08245 14.9497H16.9984C17.3797 14.9497 17.6466 14.6442 17.6466 14.3008V12.9652C17.6466 12.5832 17.3418 12.3163 16.9984 12.3163H1.08245C0.701116 12.3163 0.433594 12.6218 0.433594 12.9652V14.3008Z" fill="#DD5244"/>
<path d="M4.40277 18.2701C4.40277 18.6514 4.70823 18.9189 5.05163 18.9189H19.6319C20.0132 18.9189 20.2801 18.6135 20.2801 18.2701V16.9344C20.2801 16.5524 19.9753 16.2856 19.6319 16.2856H5.09022C4.70823 16.2856 4.44136 16.591 4.44136 16.9344V18.2701H4.40277Z" fill="#DD5244"/>
<path d="M9.70837 22.2777C9.70837 22.659 10.0132 22.9265 10.3572 22.9265H22.3035C22.6848 22.9265 22.9523 22.6211 22.9523 22.2777V20.942C22.9523 20.56 22.6469 20.2932 22.3035 20.2932H10.3952C10.0132 20.2932 9.74631 20.5986 9.74631 20.942L9.70837 22.2777Z" fill="#DD5244"/>
</svg>
