<svg width="13" height="13" viewBox="0 0 13 13" fill="none" xmlns="http://www.w3.org/2000/svg">
<path fill-rule="evenodd" clip-rule="evenodd" d="M8.97064 9.6739C6.82157 11.4677 3.61983 11.3557 1.60215 9.33804C-0.534051 7.20183 -0.534051 3.73836 1.60215 1.60215C3.73836 -0.534051 7.20183 -0.534051 9.33804 1.60215C11.3557 3.61983 11.4677 6.82157 9.6739 8.97064L12.8543 12.1511C13.0485 12.3453 13.0485 12.6601 12.8543 12.8543C12.6601 13.0485 12.3453 13.0485 12.1511 12.8543L8.97064 9.6739ZM8.63478 8.63478C10.3826 6.88697 10.3826 4.05322 8.63478 2.30542C6.88697 0.557612 4.05322 0.557612 2.30542 2.30542C0.557612 4.05322 0.557612 6.88697 2.30542 8.63478C4.05322 10.3826 6.88697 10.3826 8.63478 8.63478Z" fill="#708096"/>
</svg>
