<svg width="6" height="9" viewBox="0 0 6 9" fill="none" xmlns="http://www.w3.org/2000/svg">
<path fill-rule="evenodd" clip-rule="evenodd" d="M0.5 8.5C0.223858 8.5 0 8.27614 0 8L0 1C0 0.723857 0.223858 0.5 0.5 0.5C0.776142 0.5 1 0.723857 1 1L1 8C1 8.27614 0.776142 8.5 0.5 8.5Z" fill="#708096"/>
<path fill-rule="evenodd" clip-rule="evenodd" d="M5.87628 0.670755C6.05812 0.878573 6.03706 1.19445 5.82925 1.3763L2.25929 4.50001L5.82925 7.62372C6.03706 7.80556 6.05812 8.12144 5.87628 8.32926C5.69444 8.53708 5.37856 8.55814 5.17074 8.3763L1.17074 4.8763C1.06223 4.78135 0.999993 4.64419 0.999993 4.50001C0.999993 4.35583 1.06223 4.21866 1.17074 4.12372L5.17074 0.623719C5.37856 0.441877 5.69444 0.462936 5.87628 0.670755Z" fill="#708096"/>
</svg>
