<svg width="15" height="18" viewBox="0 0 15 18" fill="none" xmlns="http://www.w3.org/2000/svg">
<path fill-rule="evenodd" clip-rule="evenodd" d="M5.85355 6.14645C6.04882 6.34171 6.04882 6.65829 5.85355 6.85355L3.85355 8.85355C3.65829 9.04882 3.34171 9.04882 3.14645 8.85355L2.14645 7.85355C1.95118 7.65829 1.95118 7.34171 2.14645 7.14645C2.34171 6.95118 2.65829 6.95118 2.85355 7.14645L3.5 7.79289L5.14645 6.14645C5.34171 5.95118 5.65829 5.95118 5.85355 6.14645Z" fill="#2D3748"/>
<path fill-rule="evenodd" clip-rule="evenodd" d="M5.85355 11.1464C6.04882 11.3417 6.04882 11.6583 5.85355 11.8536L3.85355 13.8536C3.65829 14.0488 3.34171 14.0488 3.14645 13.8536L2.14645 12.8536C1.95118 12.6583 1.95118 12.3417 2.14645 12.1464C2.34171 11.9512 2.65829 11.9512 2.85355 12.1464L3.5 12.7929L5.14645 11.1464C5.34171 10.9512 5.65829 10.9512 5.85355 11.1464Z" fill="#2D3748"/>
<path fill-rule="evenodd" clip-rule="evenodd" d="M7 7.5C7 7.22386 7.22386 7 7.5 7H12.5C12.7761 7 13 7.22386 13 7.5C13 7.77614 12.7761 8 12.5 8H7.5C7.22386 8 7 7.77614 7 7.5Z" fill="#2D3748"/>
<path fill-rule="evenodd" clip-rule="evenodd" d="M7 12.5C7 12.2239 7.22386 12 7.5 12H12.5C12.7761 12 13 12.2239 13 12.5C13 12.7761 12.7761 13 12.5 13H7.5C7.22386 13 7 12.7761 7 12.5Z" fill="#2D3748"/>
<path fill-rule="evenodd" clip-rule="evenodd" d="M6 1H9V2H6V1ZM5 2V1C5 0.447715 5.44772 0 6 0H9C9.55228 0 10 0.447715 10 1V2H11H15V18H0V2H4H5ZM10 3H5V4H10V3ZM14 3H11V4C11 4.55228 10.5523 5 10 5H5C4.44772 5 4 4.55228 4 4V3H1V17H14V3Z" fill="#2D3748"/>
</svg>
