<svg width="18" height="18" viewBox="0 0 18 18" fill="none" xmlns="http://www.w3.org/2000/svg">
<path d="M9.4624 9.76123H7.2915V13.5H6.06641V4.25781H9.12598C10.167 4.25781 10.9668 4.49479 11.5254 4.96875C12.0882 5.44271 12.3696 6.13249 12.3696 7.03809C12.3696 7.61361 12.2131 8.11507 11.8999 8.54248C11.591 8.96989 11.1593 9.28939 10.605 9.50098L12.7759 13.4238V13.5H11.4683L9.4624 9.76123ZM7.2915 8.76465H9.16406C9.76921 8.76465 10.2495 8.60807 10.605 8.29492C10.9647 7.98177 11.1445 7.56283 11.1445 7.03809C11.1445 6.4668 10.9731 6.02881 10.6304 5.72412C10.2918 5.41943 9.80094 5.26497 9.15771 5.26074H7.2915V8.76465Z" fill="#2D3748"/>
<path fill-rule="evenodd" clip-rule="evenodd" d="M9 17C13.4183 17 17 13.4183 17 9C17 4.58172 13.4183 1 9 1C4.58172 1 1 4.58172 1 9C1 13.4183 4.58172 17 9 17ZM9 18C13.9706 18 18 13.9706 18 9C18 4.02944 13.9706 0 9 0C4.02944 0 0 4.02944 0 9C0 13.9706 4.02944 18 9 18Z" fill="#2D3748"/>
</svg>
